<?xml version="1.0" encoding="UTF-8" standalone="no"?>
<svg width="139px" height="74px" viewBox="0 0 139 74" version="1.1" xmlns="http://www.w3.org/2000/svg" xmlns:xlink="http://www.w3.org/1999/xlink">
    <!-- Generator: Sketch 47.1 (45422) - http://www.bohemiancoding.com/sketch -->
    <title>envelope image</title>
    <desc>Created with Sketch.</desc>
    <defs></defs>
    <g id="Page-1" stroke="none" stroke-width="1" fill="none" fill-rule="evenodd">
        <g id="envelope-image">
            <path d="M26,62.4303274 C10.1470397,63.6216623 0,65.4500053 0,67.5 C0,71.0898509 31.1162099,74 69.5,74 C107.88379,74 139,71.0898509 139,67.5 C139,65.4934427 129.278417,63.6992435 114,62.5069112 L114,65.4331151 C114,66.2980355 113.30162,67 112.445742,67 L27.5542577,67 C26.6963075,67 26,66.2980355 26,65.4331151 L26,62.4303274 Z" id="Combined-Shape" fill="#F9FAFB"></path>
            <g id="Group" transform="translate(70.000000, 33.500000) rotate(-180.000000) translate(-70.000000, -33.500000) translate(26.000000, 0.000000)" fill="#DFE3E8">
                <path d="M87.9647702,1.38930465 C87.9523361,1.27857811 87.9357573,1.17411911 87.8984552,1.0717493 C87.86737,0.975647022 87.8238508,0.892079825 87.7741145,0.806423449 C87.7264506,0.718677892 87.6767144,0.639289055 87.6124717,0.561989398 C87.5440844,0.476333022 87.4591183,0.409479264 87.3700075,0.340536327 C87.324416,0.302931088 87.2912585,0.25279077 87.2394499,0.221453071 C87.2104371,0.204739632 87.1772796,0.204739632 87.1461944,0.190115373 C87.052939,0.137885875 86.9513941,0.110726536 86.8477769,0.0814780168 C86.7462321,0.0543186779 86.6509043,0.0292485189 86.5472871,0.0208917992 C86.5141296,0.0188026193 86.4830445,0 86.4457423,0 L1.55425772,0 C1.51695554,0 1.48587038,0.0188026193 1.4485682,0.0229809791 C1.35116805,0.0292485189 1.25791258,0.0543186779 1.16051243,0.0793888369 C1.05482291,0.110726536 0.951205727,0.137885875 0.851733233,0.190115373 C0.824792766,0.204739632 0.791635268,0.204739632 0.762622457,0.221453071 C0.708741522,0.25279077 0.679728711,0.302931088 0.629992464,0.340536327 C0.540881688,0.409479264 0.457987943,0.476333022 0.389600603,0.561989398 C0.323285607,0.639289055 0.273549359,0.718677892 0.225885456,0.804334269 C0.176149209,0.892079825 0.132629992,0.975647022 0.0994724943,1.0717493 C0.0683873399,1.17411911 0.0518085908,1.27857811 0.039374529,1.38930465 C0.0310851545,1.44989086 0,1.50420954 0,1.56688494 L0,65.4331151 C0,66.2980355 0.698379804,67 1.55425772,67 L86.4457423,67 C87.3036925,67 88,66.2980355 88,65.4331151 L88,1.56688494 C88,1.50420954 87.9730595,1.44989086 87.9647702,1.38930465 L87.9647702,1.38930465 Z M83.5859081,3.13376988 C78.9770158,10.009261 64.2177845,29.95884 44,36.9993764 C23.7822155,29.95884 9.02505652,10.009261 4.41409194,3.13376988 L83.5859081,3.13376988 L83.5859081,3.13376988 Z M3.11058779,6.78565638 C7.40862849,12.9529155 16.2782592,24.257468 28.4967973,32.5515123 C16.0585908,42.3581229 7.05011304,54.6090739 3.11058779,60.4984721 L3.11058779,6.78565638 L3.11058779,6.78565638 Z M4.63790505,63.8662301 C7.74227581,59.0652947 17.5486059,44.8922981 31.2695931,34.3398503 C35.0702713,36.6755535 39.1590053,38.6895229 43.5067822,40.154038 C43.5088546,40.1561272 43.5129992,40.154038 43.5192163,40.1561272 C43.6725697,40.2062675 43.8342125,40.2334269 44,40.2334269 C44.1616428,40.2334269 44.3232856,40.2062675 44.4787114,40.1561272 C44.4807837,40.154038 44.4849284,40.1561272 44.4890731,40.154038 C48.8389224,38.6895229 52.919367,36.6776427 56.7179729,34.3461179 C70.4389601,44.8985656 80.2432178,59.0673838 83.3496609,63.8662301 L4.63790505,63.8662301 L4.63790505,63.8662301 Z M84.8894122,60.5235423 C80.962321,54.64459 71.9476262,42.3790147 59.492841,32.5577799 C71.7175961,24.2637356 80.5934439,12.9529155 84.8894122,6.78565638 L84.8894122,60.5235423 L84.8894122,60.5235423 Z" id="Fill-71" transform="translate(44.000000, 33.500000) scale(1, -1) translate(-44.000000, -33.500000) "></path>
            </g>
        </g>
    </g>
</svg>