<?xml version="1.0" encoding="UTF-8" standalone="no"?>
<svg width="28px" height="25px" viewBox="0 0 28 25" version="1.1" xmlns="http://www.w3.org/2000/svg" xmlns:xlink="http://www.w3.org/1999/xlink">
    <!-- Generator: Sketch 47.1 (45422) - http://www.bohemiancoding.com/sketch -->
    <title>new-selected</title>
    <desc>Created with Sketch.</desc>
    <defs></defs>
    <g id="Symbols" stroke="none" stroke-width="1" fill="none" fill-rule="evenodd">
        <g id="icon/new/selected" transform="translate(-10.000000, -5.000000)" fill="#CC0000">
            <path d="M24.6966678,5 C16.5930043,5 10,9.8542757 10,15.8206895 C10,19.1589043 11.970399,22.2312383 15.4028425,24.2478513 C15.4646613,24.2940654 15.6177078,24.6007586 15.5594901,25.177534 C15.5030729,25.7363038 15.088947,27.6706919 12.134849,29.0697172 C11.9559946,29.1543429 11.8533634,29.3452009 11.881572,29.5402602 C11.9097806,29.7359197 12.0616267,29.8901666 12.2572862,29.9207759 C12.2770922,29.924377 12.7662409,30 13.5440774,30 C15.5600903,30 19.3100302,29.5006482 22.0522639,26.2020454 C22.2695299,26.2386566 22.4885965,26.2812695 22.7088635,26.3250828 C23.3480578,26.4499208 24.0082585,26.5795602 24.6966678,26.5795602 C32.496639,26.5795602 37.9444951,22.1550151 37.9444951,15.8206895 C37.9444951,9.44975272 32.496639,5 24.6966678,5 L24.6966678,5 Z M24.6966678,25.6792865 C24.0958851,25.6792865 23.4788976,25.5580496 22.8823162,25.4410141 C22.5612186,25.3785951 22.2437221,25.3161761 21.9298267,25.2717626 C21.769578,25.2471551 21.6123301,25.3119748 21.5126999,25.437413 C19.1425793,28.4347242 15.8565804,29.0337062 13.898185,29.0943247 C16.1638738,27.5242474 16.4423585,25.6756854 16.4693667,25.0767033 C16.5035771,24.3162721 16.2767081,23.7172901 15.861982,23.473616 C12.7092236,21.6208527 10.9002737,18.8312047 10.9002737,15.8206895 C10.9002737,10.3506266 17.0893552,5.90027368 24.6966678,5.90027368 C31.9666779,5.90027368 37.0442214,9.97911365 37.0442214,15.8206895 C37.0442214,21.625054 31.9666779,25.6792865 24.6966678,25.6792865 L24.6966678,25.6792865 Z" id="new-selected"></path>
        </g>
    </g>
</svg>