<?xml version="1.0" encoding="UTF-8" standalone="no"?>
<svg width="21px" height="25px" viewBox="0 0 21 25" version="1.1" xmlns="http://www.w3.org/2000/svg" xmlns:xlink="http://www.w3.org/1999/xlink">
    <!-- Generator: Sketch 47.1 (45422) - http://www.bohemiancoding.com/sketch -->
    <title>ongoing-selected</title>
    <desc>Created with Sketch.</desc>
    <defs></defs>
    <g id="Symbols" stroke="none" stroke-width="1" fill="none" fill-rule="evenodd">
        <g id="icon/questions/selected" transform="translate(-14.000000, -5.000000)" fill="#CC0000">
            <g id="ongoing-selected" transform="translate(14.000000, 5.000000)">
                <path d="M20.9915929,9.33177424 C20.9886257,9.30533209 20.9846694,9.28038665 20.9757677,9.25594013 C20.9683497,9.23299033 20.9579644,9.21303399 20.9460955,9.19257873 C20.9347212,9.17162457 20.9228523,9.15266604 20.9075217,9.13420642 C20.891202,9.11375117 20.870926,9.09778609 20.8496609,9.08132211 C20.8387811,9.07234175 20.8308685,9.06036795 20.8185051,9.05288432 C20.8115816,9.04889305 20.803669,9.04889305 20.7962509,9.04540069 C20.7739968,9.03292797 20.7497645,9.02644216 20.7250377,9.01945744 C20.7008054,9.01297162 20.6780567,9.00698472 20.6533299,9.00498909 C20.6454173,9.00449018 20.6379992,9 20.6290976,9 L0.370902411,9 C0.362000754,9 0.354582705,9.00449018 0.345681047,9.005488 C0.32243783,9.00698472 0.300183685,9.01297162 0.276940467,9.01895853 C0.251719103,9.02644216 0.226992276,9.03292797 0.203254521,9.04540069 C0.196825546,9.04889305 0.188912962,9.04889305 0.18198945,9.05288432 C0.1691315,9.06036795 0.162207988,9.07234175 0.150339111,9.08132211 C0.129074039,9.09778609 0.109292577,9.11375117 0.0929728711,9.13420642 C0.0771477016,9.15266604 0.0652788244,9.17162457 0.0539044838,9.19207983 C0.0420356066,9.21303399 0.0316503391,9.23299033 0.0237377543,9.25594013 C0.0163197061,9.28038665 0.0123634137,9.30533209 0.00939619442,9.33177424 C0.00741804823,9.34624259 0,9.35921422 0,9.37418148 L0,24.6258185 C0,24.8323667 0.166658817,25 0.370902411,25 L20.6290976,25 C20.8338357,25 21,24.8323667 21,24.6258185 L21,9.37418148 C21,9.35921422 20.993571,9.34624259 20.9915929,9.33177424 L20.9915929,9.33177424 Z M19.9466372,9.74836296 C18.8467879,11.3902713 15.3246986,16.1543499 10.5,17.835672 C5.67530143,16.1543499 2.15370667,11.3902713 1.05336285,9.74836296 L19.9466372,9.74836296 L19.9466372,9.74836296 Z M0.742299359,10.6204553 C1.76796816,12.0932336 3.88458459,14.7928282 6.80037208,16.7734955 C3.83216372,19.1153726 1.68241334,22.0409729 0.742299359,23.4473963 L0.742299359,10.6204553 L0.742299359,10.6204553 Z M1.1067728,24.251637 C1.84758855,23.105145 4.18773549,19.7205488 7.46206198,17.2005613 C8.36904201,17.7583411 9.34476262,18.2392891 10.3823003,18.589024 C10.3827948,18.5895229 10.3837839,18.589024 10.3852675,18.5895229 C10.4218632,18.6014967 10.4604371,18.6079825 10.5,18.6079825 C10.5385739,18.6079825 10.5771477,18.6014967 10.6142379,18.5895229 C10.6147325,18.589024 10.6157216,18.5895229 10.6167106,18.589024 C11.6547428,18.2392891 12.6284853,17.75884 13.5349708,17.202058 C16.8092973,19.7220455 19.1489497,23.1056439 19.89026,24.251637 L1.1067728,24.251637 L1.1067728,24.251637 Z M20.2577006,23.4533832 C19.3205539,22.0494543 17.1693199,19.1203617 14.1971552,16.7749922 C17.1144263,14.7943249 19.2325264,12.0932336 20.2577006,10.6204553 L20.2577006,23.4533832 L20.2577006,23.4533832 Z" id="Fill-71" transform="translate(10.500000, 17.000000) scale(1, -1) translate(-10.500000, -17.000000) "></path>
                <path d="M19.8566741,9 L21,9 C19.7775102,7.17279457 15.8626845,1.87106724 10.5,0 C5.13731546,1.87106724 1.22303947,7.17279457 0,9 L1.1434815,9 C2.71774973,6.74719663 6.09268257,2.59248972 10.4999998,0.988467924 C14.907317,2.59248972 18.2826417,6.74719663 19.8566741,9 Z" id="Combined-Shape"></path>
            </g>
        </g>
    </g>
</svg>