<?xml version="1.0" encoding="UTF-8" standalone="no"?>
<svg width="25px" height="25px" viewBox="0 0 25 25" version="1.1" xmlns="http://www.w3.org/2000/svg" xmlns:xlink="http://www.w3.org/1999/xlink">
    <!-- Generator: Sketch 47.1 (45422) - http://www.bohemiancoding.com/sketch -->
    <title>search-deselected</title>
    <desc>Created with Sketch.</desc>
    <defs></defs>
    <g id="Symbols" stroke="none" stroke-width="1" fill="none" fill-rule="evenodd" opacity="0.626632463">
        <g id="icon/search/deselected" transform="translate(-12.000000, -5.000000)" fill="#5B5C59">
            <path d="M36.712173,29.2511817 L27.8924978,20.4309215 C29.4211401,18.7899565 30.3647681,16.597323 30.3647681,14.1835541 C30.3647681,9.11967052 26.2456826,5 21.181799,5 C16.1185005,5 12,9.11967052 12,14.1835541 C12,19.2462676 16.1185005,23.3665231 21.181799,23.3665231 C23.516006,23.3665231 25.6425329,22.4837366 27.2647775,21.0440165 L36.0920578,29.8718819 C36.1774699,29.957294 36.2897927,30 36.4027004,30 C36.5144382,30 36.6261759,29.957294 36.712173,29.8718819 C36.8835822,29.7004727 36.8835822,29.4225909 36.712173,29.2511817 L36.712173,29.2511817 Z M21.181799,22.4890017 C16.6023073,22.4890017 12.8775214,18.7624608 12.8775214,14.1835541 C12.8775214,9.60347732 16.6023073,5.87752141 21.181799,5.87752141 C25.7612908,5.87752141 29.4872467,9.60347732 29.4872467,14.1835541 C29.4872467,18.7624608 25.7612908,22.4890017 21.181799,22.4890017 L21.181799,22.4890017 Z" id="search-deselected"></path>
        </g>
    </g>
</svg>